<svg fill="none" height="1080" viewBox="0 0 1080 1080" width="1080" xmlns="http://www.w3.org/2000/svg" xmlns:xlink="http://www.w3.org/1999/xlink"><filter id="a" color-interpolation-filters="sRGB" filterUnits="userSpaceOnUse" height="2874" width="3358.92" x="-1121" y="-862.986"><feFlood flood-opacity="0" result="BackgroundImageFix"/><feBlend in="SourceGraphic" in2="BackgroundImageFix" mode="normal" result="shape"/><feGaussianBlur result="effect1_foregroundBlur" stdDeviation="125"/></filter><filter id="b" color-interpolation-filters="sRGB" filterUnits="userSpaceOnUse" height="1649.75" width="1652.5" x="585.413" y="-321.351"><feFlood flood-opacity="0" result="BackgroundImageFix"/><feBlend in="SourceGraphic" in2="BackgroundImageFix" mode="normal" result="shape"/><feGaussianBlur result="effect1_foregroundBlur" stdDeviation="125"/></filter><filter id="c" color-interpolation-filters="sRGB" filterUnits="userSpaceOnUse" height="698" width="699" x="642" y="-169"><feFlood flood-opacity="0" result="BackgroundImageFix"/><feBlend in="SourceGraphic" in2="BackgroundImageFix" mode="normal" result="shape"/><feGaussianBlur result="effect1_foregroundBlur" stdDeviation="125"/></filter><filter id="d" color-interpolation-filters="sRGB" filterUnits="userSpaceOnUse" height="1421.18" width="1430.82" x="37.1855" y="589.838"><feFlood flood-opacity="0" result="BackgroundImageFix"/><feBlend in="SourceGraphic" in2="BackgroundImageFix" mode="normal" result="shape"/><feGaussianBlur result="effect1_foregroundBlur" stdDeviation="125"/></filter><filter id="e" color-interpolation-filters="sRGB" filterUnits="userSpaceOnUse" height="764" width="767" x="123" y="-76"><feFlood flood-opacity="0" result="BackgroundImageFix"/><feBlend in="SourceGraphic" in2="BackgroundImageFix" mode="normal" result="shape"/><feGaussianBlur result="effect1_foregroundBlur" stdDeviation="125"/></filter><filter id="f" color-interpolation-filters="sRGB" filterUnits="userSpaceOnUse" height="1636" width="1727" x="-1121" y="-862.986"><feFlood flood-opacity="0" result="BackgroundImageFix"/><feBlend in="SourceGraphic" in2="BackgroundImageFix" mode="normal" result="shape"/><feGaussianBlur result="effect1_foregroundBlur" stdDeviation="125"/></filter><filter id="g" color-interpolation-filters="sRGB" filterUnits="userSpaceOnUse" height="897" width="929" x="-151" y="273"><feFlood flood-opacity="0" result="BackgroundImageFix"/><feBlend in="SourceGraphic" in2="BackgroundImageFix" mode="normal" result="shape"/><feGaussianBlur result="effect1_foregroundBlur" stdDeviation="125"/></filter><filter id="h" color-interpolation-filters="sRGB" filterUnits="userSpaceOnUse" height="711" width="727" x="358" y="-76"><feFlood flood-opacity="0" result="BackgroundImageFix"/><feBlend in="SourceGraphic" in2="BackgroundImageFix" mode="normal" result="shape"/><feGaussianBlur result="effect1_foregroundBlur" stdDeviation="125"/></filter><clipPath id="i"><path d="m0 0h1080v1080h-1080z"/></clipPath><g clip-path="url(#i)"><path d="m0 0h1080v1080h-1080z" fill="#3296fa"/><g filter="url(#a)"><g filter="url(#b)" opacity=".4"><path d="m864.69 322.004c99.877-301.1612 425.73-464.031 727.82-363.7809 302.08 100.2505 466.01 425.6589 366.13 726.8199s-425.73 464.027-727.82 363.777c-302.086-100.247-466.008-425.655-366.13-726.816z" fill="#6e32fa"/></g><g filter="url(#c)" opacity=".4"><path d="m896.958 148.443c17.082-51.8088 73.258-79.679 125.472-62.2502 52.21 17.4282 80.69 73.5562 63.61 125.3642-17.08 51.809-73.26 79.679-125.47 62.25-52.215-17.428-80.695-73.556-63.612-125.364z" fill="#6e32fa"/></g><g filter="url(#d)" opacity=".8"><path d="m310.376 1153.61c79.902-241.036 342.663-370.699 586.893-289.614 244.231 81.086 377.441 342.214 297.541 583.244-79.9 241.04-342.663 370.7-586.893 289.62-244.229-81.09-377.443-342.22-297.541-583.25z" fill="#6e32fa"/></g><g filter="url(#e)"><path d="m379.652 263.923c22.92-69.077 98.291-106.238 168.348-82.999 70.056 23.238 108.268 98.075 85.348 167.153-22.92 69.077-98.291 106.238-168.348 82.999-70.056-23.238-108.268-98.075-85.348-167.153z" fill="#6e32fa"/></g><g filter="url(#f)" opacity=".4"><path d="m-870.775-35.4722c-9.095-313.6528 258.105-572.1778 596.807-577.4318 338.702-5.255 620.647 244.752 629.743 558.4047 9.095 313.6523-258.1046 572.1783-596.807 577.4323-338.702 5.254-620.647-244.752-629.743-558.4052z" fill="#6e32fa"/></g><g filter="url(#g)" opacity=".2"><path d="m99.0788 724.825c-3.18-109.613 90.2422-199.96 208.6632-201.797 118.422-1.836 216.999 85.534 220.179 195.147s-90.242 199.96-208.663 201.797c-118.422 1.836-216.999-85.534-220.1792-195.147z" fill="#fff"/></g><g filter="url(#h)" opacity=".2"><path d="m608.042 281.267c-1.683-58.258 47.75-106.276 110.411-107.252 62.662-.976 114.823 45.46 116.505 103.718 1.683 58.258-47.75 106.276-110.411 107.252-62.662.976-114.823-45.46-116.505-103.718z" fill="#fff"/></g></g></g></svg>