<svg width="1080" height="1080" viewBox="0 0 1080 1080" fill="none" xmlns="http://www.w3.org/2000/svg">
<g clip-path="url(#clip0)">
<rect width="1080" height="1080" fill="#AF26D1"/>
<g filter="url(#filter0_f)">
<g opacity="0.4" filter="url(#filter1_f)">
<path d="M179.311 984.011C79.433 1285.17 -246.423 1448.04 -548.509 1347.79C-850.594 1247.54 -1014.52 922.133 -914.639 620.972C-814.761 319.811 -488.906 156.941 -186.82 257.191C115.266 357.442 279.188 682.85 179.311 984.011Z" fill="#6E32FA"/>
</g>
<g opacity="0.4" filter="url(#filter2_f)">
<path d="M774.729 1272.89C694.827 1513.93 432.066 1643.59 187.836 1562.5C-56.394 1481.42 -189.608 1220.29 -109.706 979.256C-29.8036 738.222 232.957 608.559 477.187 689.644C721.417 770.73 854.631 1031.86 774.729 1272.89Z" fill="#AF26D1"/>
</g>
<g opacity="0.4" filter="url(#filter3_f)">
<path d="M1927.72 -7.71716C1825.13 301.051 1487.74 467.152 1174.14 363.28C860.542 259.408 689.492 -75.1024 792.088 -383.87C894.685 -692.638 1232.08 -858.739 1545.67 -754.867C1859.27 -650.995 2030.32 -316.485 1927.72 -7.71716Z" fill="#6E32FA"/>
</g>
<g opacity="0.4" filter="url(#filter4_f)">
<path d="M1985.57 1561.68C1839.71 2001.34 1360.05 2237.85 914.222 2089.95C468.391 1942.04 225.215 1465.73 371.073 1026.07C516.93 586.406 996.589 349.892 1442.42 497.797C1888.25 645.702 2131.43 1122.02 1985.57 1561.68Z" fill="#AF26D1"/>
</g>
<g opacity="0.4" filter="url(#filter5_f)">
<path d="M1445 -76.1748C1457.71 522.917 978.711 1018.95 375.132 1031.76C-228.448 1044.56 -728.047 569.275 -740.753 -29.8165C-753.46 -628.908 -274.462 -1124.95 329.118 -1137.75C932.698 -1150.55 1432.3 -675.267 1445 -76.1748Z" fill="#AF26D1"/>
</g>
<g opacity="0.24" filter="url(#filter6_f)">
<path d="M2180.8 1106.67C2191.16 1593.39 1800.51 1996.39 1308.26 2006.79C816.013 2017.19 408.564 1631.06 398.201 1144.33C387.839 657.606 778.486 254.606 1270.74 244.205C1762.99 233.805 2170.44 619.943 2180.8 1106.67Z" fill="#DC3545"/>
</g>
<g opacity="0.4" filter="url(#filter7_f)">
<path d="M1051.33 -266.525C996.865 -102.361 817.766 -14.0495 651.298 -69.2754C484.831 -124.501 394.032 -302.352 448.493 -466.516C502.955 -630.679 682.053 -718.991 848.521 -663.765C1014.99 -608.539 1105.79 -430.689 1051.33 -266.525Z" fill="#AF26D1"/>
</g>
<g opacity="0.4" filter="url(#filter8_f)">
<path d="M1806.84 1098.45C1813.11 1314.36 1629.1 1492.33 1395.84 1495.94C1162.59 1499.56 968.419 1327.46 962.155 1111.55C955.892 895.637 1139.9 717.673 1373.16 714.056C1606.41 710.439 1800.58 882.539 1806.84 1098.45Z" fill="#6E32FA"/>
</g>
<g opacity="0.4" filter="url(#filter9_f)">
<path d="M1602.84 176.451C1609.11 392.363 1425.1 570.327 1191.84 573.944C958.587 577.561 764.419 405.461 758.155 189.549C751.892 -26.3635 935.904 -204.327 1169.16 -207.944C1402.41 -211.561 1596.58 -39.4614 1602.84 176.451Z" fill="#DC3545"/>
</g>
<g opacity="0.4" filter="url(#filter10_f)">
<path d="M451.689 1118.56C455.972 1320.5 330.147 1486.94 170.652 1490.33C11.1573 1493.71 -121.611 1332.75 -125.894 1130.81C-130.177 928.879 -4.35249 762.435 155.143 759.052C314.638 755.669 447.406 916.629 451.689 1118.56Z" fill="#DC3545"/>
</g>
<g opacity="0.4" filter="url(#filter11_f)">
<path d="M451.689 1118.56C455.972 1320.5 330.147 1486.94 170.652 1490.33C11.1573 1493.71 -121.611 1332.75 -125.894 1130.81C-130.177 928.879 -4.35249 762.435 155.143 759.052C314.638 755.669 447.406 916.629 451.689 1118.56Z" fill="#DC3545"/>
</g>
<g opacity="0.4" filter="url(#filter12_f)">
<path d="M396.458 356.515C302.133 640.84 -8.05838 793.792 -296.373 698.143C-584.688 602.494 -741.948 294.465 -647.623 10.1401C-553.298 -274.184 -243.107 -427.136 45.2077 -331.487C333.523 -235.838 490.783 72.1908 396.458 356.515Z" fill="#AF26D1"/>
</g>
<g opacity="0.4" filter="url(#filter13_f)">
<path d="M905.365 -86.4289C1056.65 -13.9107 1018.27 234.748 819.636 468.966C621.006 703.185 337.346 834.268 186.064 761.75C34.7809 689.232 73.1631 440.573 271.793 206.355C470.422 -27.8633 754.082 -158.947 905.365 -86.4289Z" fill="#AF26D1"/>
</g>
</g>
</g>
<defs>
<filter id="filter0_f" x="-1193.92" y="-1388" width="3624.92" height="3772.01" filterUnits="userSpaceOnUse" color-interpolation-filters="sRGB">
<feFlood flood-opacity="0" result="BackgroundImageFix"/>
<feBlend mode="normal" in="SourceGraphic" in2="BackgroundImageFix" result="shape"/>
<feGaussianBlur stdDeviation="125" result="effect1_foregroundBlur"/>
</filter>
<filter id="filter1_f" x="-1193.92" y="-22.3834" width="1652.5" height="1649.75" filterUnits="userSpaceOnUse" color-interpolation-filters="sRGB">
<feFlood flood-opacity="0" result="BackgroundImageFix"/>
<feBlend mode="normal" in="SourceGraphic" in2="BackgroundImageFix" result="shape"/>
<feGaussianBlur stdDeviation="125" result="effect1_foregroundBlur"/>
</filter>
<filter id="filter2_f" x="-382.896" y="415.485" width="1430.82" height="1421.18" filterUnits="userSpaceOnUse" color-interpolation-filters="sRGB">
<feFlood flood-opacity="0" result="BackgroundImageFix"/>
<feBlend mode="normal" in="SourceGraphic" in2="BackgroundImageFix" result="shape"/>
<feGaussianBlur stdDeviation="125" result="effect1_foregroundBlur"/>
</filter>
<filter id="filter3_f" x="512.311" y="-1035.81" width="1695.19" height="1680.04" filterUnits="userSpaceOnUse" color-interpolation-filters="sRGB">
<feFlood flood-opacity="0" result="BackgroundImageFix"/>
<feBlend mode="normal" in="SourceGraphic" in2="BackgroundImageFix" result="shape"/>
<feGaussianBlur stdDeviation="125" result="effect1_foregroundBlur"/>
</filter>
<filter id="filter4_f" x="78.7397" y="203.73" width="2199.16" height="2180.29" filterUnits="userSpaceOnUse" color-interpolation-filters="sRGB">
<feFlood flood-opacity="0" result="BackgroundImageFix"/>
<feBlend mode="normal" in="SourceGraphic" in2="BackgroundImageFix" result="shape"/>
<feGaussianBlur stdDeviation="125" result="effect1_foregroundBlur"/>
</filter>
<filter id="filter5_f" x="-991" y="-1388" width="2686.25" height="2670.01" filterUnits="userSpaceOnUse" color-interpolation-filters="sRGB">
<feFlood flood-opacity="0" result="BackgroundImageFix"/>
<feBlend mode="normal" in="SourceGraphic" in2="BackgroundImageFix" result="shape"/>
<feGaussianBlur stdDeviation="125" result="effect1_foregroundBlur"/>
</filter>
<filter id="filter6_f" x="148" y="-6.00012" width="2283" height="2263" filterUnits="userSpaceOnUse" color-interpolation-filters="sRGB">
<feFlood flood-opacity="0" result="BackgroundImageFix"/>
<feBlend mode="normal" in="SourceGraphic" in2="BackgroundImageFix" result="shape"/>
<feGaussianBlur stdDeviation="125" result="effect1_foregroundBlur"/>
</filter>
<filter id="filter7_f" x="182.687" y="-930.219" width="1134.45" height="1127.4" filterUnits="userSpaceOnUse" color-interpolation-filters="sRGB">
<feFlood flood-opacity="0" result="BackgroundImageFix"/>
<feBlend mode="normal" in="SourceGraphic" in2="BackgroundImageFix" result="shape"/>
<feGaussianBlur stdDeviation="125" result="effect1_foregroundBlur"/>
</filter>
<filter id="filter8_f" x="712" y="464" width="1345" height="1282" filterUnits="userSpaceOnUse" color-interpolation-filters="sRGB">
<feFlood flood-opacity="0" result="BackgroundImageFix"/>
<feBlend mode="normal" in="SourceGraphic" in2="BackgroundImageFix" result="shape"/>
<feGaussianBlur stdDeviation="125" result="effect1_foregroundBlur"/>
</filter>
<filter id="filter9_f" x="508" y="-458" width="1345" height="1282" filterUnits="userSpaceOnUse" color-interpolation-filters="sRGB">
<feFlood flood-opacity="0" result="BackgroundImageFix"/>
<feBlend mode="normal" in="SourceGraphic" in2="BackgroundImageFix" result="shape"/>
<feGaussianBlur stdDeviation="125" result="effect1_foregroundBlur"/>
</filter>
<filter id="filter10_f" x="-376" y="509" width="1077.8" height="1231.38" filterUnits="userSpaceOnUse" color-interpolation-filters="sRGB">
<feFlood flood-opacity="0" result="BackgroundImageFix"/>
<feBlend mode="normal" in="SourceGraphic" in2="BackgroundImageFix" result="shape"/>
<feGaussianBlur stdDeviation="125" result="effect1_foregroundBlur"/>
</filter>
<filter id="filter11_f" x="-376" y="509" width="1077.8" height="1231.38" filterUnits="userSpaceOnUse" color-interpolation-filters="sRGB">
<feFlood flood-opacity="0" result="BackgroundImageFix"/>
<feBlend mode="normal" in="SourceGraphic" in2="BackgroundImageFix" result="shape"/>
<feGaussianBlur stdDeviation="125" result="effect1_foregroundBlur"/>
</filter>
<filter id="filter12_f" x="-925" y="-609.985" width="1598.83" height="1586.63" filterUnits="userSpaceOnUse" color-interpolation-filters="sRGB">
<feFlood flood-opacity="0" result="BackgroundImageFix"/>
<feBlend mode="normal" in="SourceGraphic" in2="BackgroundImageFix" result="shape"/>
<feGaussianBlur stdDeviation="125" result="effect1_foregroundBlur"/>
</filter>
<filter id="filter13_f" x="-156.396" y="-356.409" width="1404.22" height="1388.14" filterUnits="userSpaceOnUse" color-interpolation-filters="sRGB">
<feFlood flood-opacity="0" result="BackgroundImageFix"/>
<feBlend mode="normal" in="SourceGraphic" in2="BackgroundImageFix" result="shape"/>
<feGaussianBlur stdDeviation="125" result="effect1_foregroundBlur"/>
</filter>
<clipPath id="clip0">
<rect width="1080" height="1080" fill="white"/>
</clipPath>
</defs>
</svg>
