<?xml version="1.0" standalone="no"?>
<!DOCTYPE svg PUBLIC "-//W3C//DTD SVG 20010904//EN"
 "http://www.w3.org/TR/2001/REC-SVG-20010904/DTD/svg10.dtd">
<svg version="1.0" xmlns="http://www.w3.org/2000/svg"
 width="512.000000pt" height="512.000000pt" viewBox="0 0 512.000000 512.000000"
 preserveAspectRatio="xMidYMid meet">
<metadata>
Created by potrace 1.11, written by Peter Selinger 2001-2013
</metadata>
<g transform="translate(0.000000,512.000000) scale(0.100000,-0.100000)"
fill="#000000" stroke="none">
<path d="M2387 4224 c-1 -1 -72 -5 -157 -8 -85 -4 -175 -9 -200 -11 -25 -2
-81 -6 -125 -10 -44 -4 -92 -8 -108 -10 -15 -2 -55 -6 -90 -10 -34 -4 -69 -8
-77 -10 -8 -2 -44 -6 -80 -10 -36 -4 -67 -8 -70 -10 -3 -2 -33 -7 -65 -10 -33
-4 -63 -9 -66 -11 -3 -1 -28 -6 -55 -10 -27 -3 -51 -8 -54 -9 -3 -2 -25 -6
-49 -10 -97 -14 -230 -47 -296 -72 -273 -104 -471 -327 -545 -613 -19 -70 -23
-118 -26 -274 -1 -104 -6 -192 -11 -196 -4 -4 -34 -17 -66 -30 -67 -26 -154
-100 -190 -163 -127 -216 -28 -493 204 -578 l59 -22 1 -156 c0 -86 2 -176 5
-201 41 -344 277 -633 604 -738 76 -25 254 -61 470 -96 199 -32 214 -34 425
-56 61 -6 128 -13 150 -15 249 -26 1016 -26 1176 0 13 2 56 6 94 9 39 4 81 8
95 10 14 3 52 7 85 10 75 8 98 11 155 20 52 9 77 12 140 21 25 3 52 8 60 10 8
2 31 7 50 10 239 38 415 86 503 137 26 15 50 28 53 28 11 0 150 119 189 161
114 124 198 311 219 484 2 22 5 113 5 202 l1 161 49 17 c151 50 254 183 267
347 16 195 -97 355 -297 421 -14 4 -16 27 -16 159 0 84 -3 179 -7 210 -39 324
-254 600 -560 719 -61 24 -231 63 -401 93 -16 3 -59 10 -95 16 -73 13 -76 13
-250 35 -166 20 -192 23 -280 30 -41 4 -93 8 -115 10 -129 12 -699 27 -708 19z
m488 -488 c88 -5 176 -9 195 -11 19 -2 67 -6 105 -9 73 -6 242 -25 285 -31
123 -17 160 -23 285 -45 246 -43 293 -55 360 -87 99 -49 194 -178 211 -288 4
-27 7 -363 7 -745 -1 -629 -2 -700 -18 -745 -55 -161 -183 -263 -365 -290 -24
-4 -47 -8 -50 -10 -6 -4 -365 -65 -410 -70 -14 -2 -45 -6 -70 -9 -67 -9 -128
-16 -195 -22 -33 -3 -76 -7 -95 -9 -244 -26 -915 -26 -1120 -1 -14 2 -61 7
-104 11 -43 4 -88 9 -100 11 -12 2 -41 6 -66 8 -237 25 -650 105 -718 140 -97
50 -192 183 -208 291 -4 28 -7 363 -7 745 l1 695 22 60 c12 33 29 67 36 76 8
8 14 19 14 24 0 5 23 31 51 58 89 86 165 110 544 172 152 25 347 50 465 60 36
3 85 8 110 10 25 2 122 7 215 11 94 3 171 7 172 8 5 3 311 -2 448 -8z"/>
<path d="M1456 2939 c-57 -9 -158 -57 -202 -96 -79 -71 -134 -193 -134 -295 0
-215 167 -394 377 -404 43 -2 91 2 118 11 25 7 48 13 50 14 23 2 86 43 129 82
106 96 152 255 115 393 -53 198 -249 325 -453 295z"/>
<path d="M2528 2945 c-2 -2 -20 -5 -40 -8 -96 -12 -217 -97 -271 -189 -104
-177 -54 -417 111 -530 232 -160 550 -46 623 224 56 210 -86 447 -296 492 -36
8 -122 15 -127 11z"/>
<path d="M3527 2934 c-128 -24 -231 -106 -289 -229 -30 -64 -32 -78 -32 -165
0 -85 3 -102 31 -162 128 -275 500 -319 682 -82 194 253 32 615 -289 647 -19
2 -65 -2 -103 -9z"/>
</g>
</svg>
